<svg xmlns="http://www.w3.org/2000/svg" viewBox="0 0 760 430" fill="none">
  <defs>
    <linearGradient id="greenStroke" x1="124" y1="112" x2="350" y2="360" gradientUnits="userSpaceOnUse">
      <stop offset="0" stop-color="#16804a"/>
      <stop offset=".34" stop-color="#38c773"/>
      <stop offset=".68" stop-color="#11814a"/>
      <stop offset="1" stop-color="#0a3b23"/>
    </linearGradient>
    <linearGradient id="greenHighlight" x1="150" y1="130" x2="308" y2="338" gradientUnits="userSpaceOnUse">
      <stop offset="0" stop-color="#9bf6b5" stop-opacity=".72"/>
      <stop offset=".45" stop-color="#ffffff" stop-opacity=".22"/>
      <stop offset="1" stop-color="#ffffff" stop-opacity="0"/>
    </linearGradient>
    <linearGradient id="goldStroke" x1="350" y1="150" x2="632" y2="378" gradientUnits="userSpaceOnUse">
      <stop offset="0" stop-color="#fff1a8"/>
      <stop offset=".3" stop-color="#ffd54c"/>
      <stop offset=".64" stop-color="#d39c12"/>
      <stop offset="1" stop-color="#7a5204"/>
    </linearGradient>
    <linearGradient id="goldHighlight" x1="374" y1="146" x2="590" y2="350" gradientUnits="userSpaceOnUse">
      <stop offset="0" stop-color="#fff6cb" stop-opacity=".78"/>
      <stop offset=".45" stop-color="#ffffff" stop-opacity=".18"/>
      <stop offset="1" stop-color="#ffffff" stop-opacity="0"/>
    </linearGradient>
    <linearGradient id="goldArrow" x1="466" y1="82" x2="678" y2="392" gradientUnits="userSpaceOnUse">
      <stop offset="0" stop-color="#fff4b5"/>
      <stop offset=".32" stop-color="#ffd84f"/>
      <stop offset=".66" stop-color="#d7a220"/>
      <stop offset="1" stop-color="#885b05"/>
    </linearGradient>
    <filter id="shadow" x="24" y="28" width="712" height="374" filterUnits="userSpaceOnUse" color-interpolation-filters="sRGB">
      <feDropShadow dx="0" dy="14" stdDeviation="12" flood-color="#082116" flood-opacity=".18"/>
    </filter>
  </defs>

  <g filter="url(#shadow)" stroke-linecap="square" stroke-linejoin="miter">
    <path d="M118 118L186 352L266 182L346 352" stroke="#082f1b" stroke-opacity=".2" stroke-width="92"/>
    <path d="M118 118L186 352L266 182L346 352" stroke="url(#greenStroke)" stroke-width="78"/>
    <path d="M144 136L204 330L266 200L324 330" stroke="url(#greenHighlight)" stroke-width="20"/>

    <path d="M432 304V196" stroke="#5f3b00" stroke-opacity=".18" stroke-width="32" stroke-linecap="round"/>
    <path d="M432 304V196" stroke="url(#goldArrow)" stroke-width="26" stroke-linecap="round"/>
    <path d="M432 156L462 204H402L432 156Z" fill="url(#goldArrow)" stroke="#8d6208" stroke-width="4" stroke-linejoin="round"/>

    <path d="M490 302V144" stroke="#5f3b00" stroke-opacity=".18" stroke-width="32" stroke-linecap="round"/>
    <path d="M490 302V144" stroke="url(#goldArrow)" stroke-width="26" stroke-linecap="round"/>
    <path d="M490 104L522 152H458L490 104Z" fill="url(#goldArrow)" stroke="#8d6208" stroke-width="4" stroke-linejoin="round"/>

    <path d="M548 300V94" stroke="#5f3b00" stroke-opacity=".18" stroke-width="32" stroke-linecap="round"/>
    <path d="M548 300V94" stroke="url(#goldArrow)" stroke-width="26" stroke-linecap="round"/>
    <path d="M548 52L582 102H514L548 52Z" fill="url(#goldArrow)" stroke="#8d6208" stroke-width="4" stroke-linejoin="round"/>

    <path d="M350 194L424 352L500 210L582 352" stroke="#3f2a02" stroke-opacity=".2" stroke-width="96"/>
    <path d="M350 194L424 352L500 210L582 352" stroke="url(#goldStroke)" stroke-width="80"/>
    <path d="M374 196L438 330L500 230L560 330" stroke="url(#goldHighlight)" stroke-width="22"/>

    <path d="M498 350C558 286 618 212 684 136" stroke="#503201" stroke-opacity=".18" stroke-width="112" stroke-linecap="round"/>
    <path d="M498 350C558 286 618 212 684 136" stroke="url(#goldArrow)" stroke-width="92" stroke-linecap="round"/>
    <path d="M654 96L732 110L682 182L654 96Z" fill="url(#goldArrow)" stroke="#8b5e08" stroke-width="6" stroke-linejoin="round"/>

    <path d="M258 244C310 198 364 182 412 188C456 194 492 226 520 276" stroke="#d8e4d6" stroke-opacity=".62" stroke-width="30" stroke-linecap="round"/>
    <path d="M258 244C310 198 364 182 412 188C456 194 492 226 520 276" stroke="#fffdf6" stroke-width="18" stroke-linecap="round"/>
  </g>
</svg>
