<svg xmlns="http://www.w3.org/2000/svg" viewBox="0 0 220 220" fill="none">
  <defs>
    <linearGradient id="car-base" x1="52" y1="122" x2="168" y2="164" gradientUnits="userSpaceOnUse">
      <stop stop-color="#E8F6EB"/>
      <stop offset="1" stop-color="#D2E8D9"/>
    </linearGradient>
    <linearGradient id="car-body" x1="72" y1="103" x2="149" y2="143" gradientUnits="userSpaceOnUse">
      <stop stop-color="#22B663"/>
      <stop offset="1" stop-color="#0F6B3D"/>
    </linearGradient>
    <linearGradient id="car-top" x1="93" y1="89" x2="140" y2="118" gradientUnits="userSpaceOnUse">
      <stop stop-color="#FFD97D"/>
      <stop offset="1" stop-color="#D6A92C"/>
    </linearGradient>
    <filter id="car-shadow" x="40" y="66" width="145" height="120" filterUnits="userSpaceOnUse" color-interpolation-filters="sRGB">
      <feDropShadow dx="0" dy="16" stdDeviation="10" flood-color="#0A3B24" flood-opacity="0.18"/>
    </filter>
  </defs>
  <ellipse cx="110" cy="173" rx="58" ry="14" fill="#0D4A28" opacity="0.11"/>
  <g filter="url(#car-shadow)">
    <path d="M58 129L110 103L162 129L110 155L58 129Z" fill="url(#car-base)"/>
    <path d="M58 129V140L110 166V155L58 129Z" fill="#C7DFCC"/>
    <path d="M162 129V140L110 166V155L162 129Z" fill="#B8D1BD"/>
    <path d="M79 116C79 110.477 83.477 106 89 106H129C132.768 106 136.244 108.126 138 111.5L145 125H78L79 116Z" fill="url(#car-body)"/>
    <path d="M94 95C95.786 91.428 99.437 89 103.431 89H125C129.971 89 134 93.029 134 98V106H90L94 95Z" fill="url(#car-top)"/>
    <path d="M97 101H127" stroke="#F7F3E8" stroke-width="4" stroke-linecap="round"/>
    <circle cx="92" cy="128" r="9" fill="#133B26"/>
    <circle cx="132" cy="128" r="9" fill="#133B26"/>
    <circle cx="92" cy="128" r="4.5" fill="#F1D06B"/>
    <circle cx="132" cy="128" r="4.5" fill="#F1D06B"/>
  </g>
  <circle cx="159" cy="61" r="11" fill="#F2DE9E" opacity="0.86"/>
  <circle cx="57" cy="70" r="6.5" fill="#71D596" opacity="0.32"/>
</svg>
