<svg width="280" height="280" viewBox="0 0 280 280" fill="none" xmlns="http://www.w3.org/2000/svg">
  <defs>
    <linearGradient id="lg1" x1="40" y1="32" x2="236" y2="252" gradientUnits="userSpaceOnUse">
      <stop stop-color="#FFF3D8"/>
      <stop offset="1" stop-color="#E3B768"/>
    </linearGradient>
    <linearGradient id="lg2" x1="96" y1="98" x2="220" y2="226" gradientUnits="userSpaceOnUse">
      <stop stop-color="#2D4A6A"/>
      <stop offset="1" stop-color="#6B89AE"/>
    </linearGradient>
  </defs>
  <circle cx="140" cy="140" r="126" fill="url(#lg1)"/>
  <rect x="58" y="145" width="28" height="52" rx="8" fill="#23405F"/>
  <rect x="94" y="126" width="28" height="71" rx="8" fill="#2D4E74"/>
  <rect x="130" y="108" width="28" height="89" rx="8" fill="#3A628E"/>
  <rect x="166" y="90" width="28" height="107" rx="8" fill="#517BA9"/>
  <path d="M68 150L109 126L146 118L182 92" stroke="#E6C27F" stroke-width="9" stroke-linecap="round"/>
  <path d="M175 90L196 82L188 103" fill="#E6C27F"/>
  <path d="M72 168H198" stroke="#203D5B" stroke-width="7" stroke-linecap="round"/>
  <rect x="186" y="168" width="46" height="42" rx="10" fill="url(#lg2)"/>
  <path d="M194 184H223" stroke="#F8E7C4" stroke-width="5" stroke-linecap="round"/>
  <path d="M194 194H214" stroke="#F8E7C4" stroke-width="5" stroke-linecap="round"/>
</svg>
